REM DIRINDEX 1\2\4,1\2\5,1\2\6,1\2\7,1\3\8,1\3\9
REM DIRNAME folder01,folder02,folder03,folder04,folder05,folder06,folder07,folder08,folder09
TITLE ""
FILE "Disc2Track27.mp3" MP3
  TRACK 01 AUDIO
    TITLE "0:"
    INDEX 01 00:00:00
  TRACK 02 AUDIO
    TITLE "8:cjc037_1726"
    INDEX 01 00:00:05
  TRACK 03 AUDIO
    TITLE "0:"
    INDEX 01 00:01:62
  TRACK 04 AUDIO
    TITLE "9:cjc037_1727"
    INDEX 01 00:01:68
  TRACK 05 AUDIO
    TITLE "0:"
    INDEX 01 00:04:56
  TRACK 06 AUDIO
    TITLE "8:cjc037_1728"
    INDEX 01 00:07:17
  TRACK 07 AUDIO
    TITLE "0:"
    INDEX 01 00:08:72
  TRACK 08 AUDIO
    TITLE "9:cjc037_1729"
    INDEX 01 00:09:02
  TRACK 09 AUDIO
    TITLE "0:"
    INDEX 01 00:12:14
  TRACK 10 AUDIO
    TITLE "8:cjc037_1730"
    INDEX 01 00:14:53
  TRACK 11 AUDIO
    TITLE "0:"
    INDEX 01 00:16:32
  TRACK 12 AUDIO
    TITLE "9:cjc037_1731"
    INDEX 01 00:16:38
  TRACK 13 AUDIO
    TITLE "0:"
    INDEX 01 00:19:30
  TRACK 14 AUDIO
    TITLE "8:cjc037_1732"
    INDEX 01 00:21:64
  TRACK 15 AUDIO
    TITLE "0:"
    INDEX 01 00:23:32
  TRACK 16 AUDIO
    TITLE "9:cjc037_1733"
    INDEX 01 00:23:36
  TRACK 17 AUDIO
    TITLE "0:"
    INDEX 01 00:26:26
  TRACK 18 AUDIO
    TITLE "8:cjc037_1734"
    INDEX 01 00:28:60
  TRACK 19 AUDIO
    TITLE "0:"
    INDEX 01 00:30:42
  TRACK 20 AUDIO
    TITLE "9:cjc037_1735"
    INDEX 01 00:30:46
  TRACK 21 AUDIO
    TITLE "0:"
    INDEX 01 00:33:17
  TRACK 22 AUDIO
    TITLE "8:cjc037_1736"
    INDEX 01 00:35:51
  TRACK 23 AUDIO
    TITLE "0:"
    INDEX 01 00:37:26
  TRACK 24 AUDIO
    TITLE "9:cjc037_1737"
    INDEX 01 00:37:32
  TRACK 25 AUDIO
    TITLE "0:"
    INDEX 01 00:39:62
  TRACK 26 AUDIO
    TITLE "8:cjc037_1738"
    INDEX 01 00:42:19
  TRACK 27 AUDIO
    TITLE "0:"
    INDEX 01 00:44:03
  TRACK 28 AUDIO
    TITLE "9:cjc037_1739"
    INDEX 01 00:44:07
  TRACK 29 AUDIO
    TITLE "0:"
    INDEX 01 00:46:66
  TRACK 30 AUDIO
    TITLE "8:cjc037_1740"
    INDEX 01 00:49:23
  TRACK 31 AUDIO
    TITLE "0:"
    INDEX 01 00:51:05
  TRACK 32 AUDIO
    TITLE "9:cjc037_1741"
    INDEX 01 00:51:13
  TRACK 33 AUDIO
    TITLE "0:"
    INDEX 01 00:54:56
  TRACK 34 AUDIO
    TITLE "8:cjc037_1742"
    INDEX 01 00:57:15
  TRACK 35 AUDIO
    TITLE "0:"
    INDEX 01 00:59:02
  TRACK 36 AUDIO
    TITLE "9:cjc037_1743"
    INDEX 01 00:59:10
  TRACK 37 AUDIO
    TITLE "0:"
    INDEX 01 01:02:32
  TRACK 38 AUDIO
    TITLE "8:cjc037_1744"
    INDEX 01 01:04:64
  TRACK 39 AUDIO
    TITLE "0:"
    INDEX 01 01:06:49
  TRACK 40 AUDIO
    TITLE "9:cjc037_1745"
    INDEX 01 01:06:55
  TRACK 41 AUDIO
    TITLE "0:"
    INDEX 01 01:09:44
  TRACK 42 AUDIO
    TITLE "8:cjc037_1746"
    INDEX 01 01:12:03
  TRACK 43 AUDIO
    TITLE "0:"
    INDEX 01 01:13:65
  TRACK 44 AUDIO
    TITLE "9:cjc037_1747"
    INDEX 01 01:13:73
  TRACK 45 AUDIO
    TITLE "0:"
    INDEX 01 01:17:08
  TRACK 46 AUDIO
    TITLE "8:cjc037_1748"
    INDEX 01 01:19:42
  TRACK 47 AUDIO
    TITLE "0:"
    INDEX 01 01:21:29
  TRACK 48 AUDIO
    TITLE "9:cjc037_1749"
    INDEX 01 01:21:33
  TRACK 49 AUDIO
    TITLE "0:"
    INDEX 01 01:25:62
  TRACK 50 AUDIO
    TITLE "8:cjc037_1750"
    INDEX 01 01:28:24
  TRACK 51 AUDIO
    TITLE "0:"
    INDEX 01 01:30:15
  TRACK 52 AUDIO
    TITLE "9:cjc037_1751"
    INDEX 01 01:30:20
  TRACK 53 AUDIO
    TITLE "0:"
    INDEX 01 01:33:23
  TRACK 54 AUDIO
    TITLE "8:cjc037_1752"
    INDEX 01 01:35:59
  TRACK 55 AUDIO
    TITLE "0:"
    INDEX 01 01:37:32
  TRACK 56 AUDIO
    TITLE "9:cjc037_1753"
    INDEX 01 01:37:36
  TRACK 57 AUDIO
    TITLE "0:"
    INDEX 01 01:40:68
  TRACK 58 AUDIO
    TITLE "8:cjc037_1754"
    INDEX 01 01:43:27
  TRACK 59 AUDIO
    TITLE "0:"
    INDEX 01 01:45:14
  TRACK 60 AUDIO
    TITLE "9:cjc037_1755"
    INDEX 01 01:45:16
  TRACK 61 AUDIO
    TITLE "0:"
    INDEX 01 01:48:32
  TRACK 62 AUDIO
    TITLE "8:cjc037_1756"
    INDEX 01 01:50:64
  TRACK 63 AUDIO
    TITLE "0:"
    INDEX 01 01:52:49
  TRACK 64 AUDIO
    TITLE "9:cjc037_1757"
    INDEX 01 01:52:55
  TRACK 65 AUDIO
    TITLE "0:"
    INDEX 01 01:55:65
  TRACK 66 AUDIO
    TITLE "8:cjc037_1758"
    INDEX 01 01:58:25
  TRACK 67 AUDIO
    TITLE "0:"
    INDEX 01 02:00:14
  TRACK 68 AUDIO
    TITLE "9:cjc037_1759"
    INDEX 01 02:00:18
  TRACK 69 AUDIO
    TITLE "0:"
    INDEX 01 02:02:66
  TRACK 70 AUDIO
    TITLE "8:cjc037_1760"
    INDEX 01 02:05:23
  TRACK 71 AUDIO
    TITLE "0:"
    INDEX 01 02:07:08
  TRACK 72 AUDIO
    TITLE "9:cjc037_1761"
    INDEX 01 02:07:12
  TRACK 73 AUDIO
    TITLE "0:"
    INDEX 01 02:09:71
